<?xml version="1.0" encoding="UTF-8"?>
<svg id="Layer_2" data-name="Layer 2" xmlns="http://www.w3.org/2000/svg" viewBox="0 0 125.93 11.52">
  <defs>
    <style>
      .cls-1 {
        fill: #e5e5e5;
      }

      .cls-1, .cls-2 {
        stroke-width: 0px;
      }

      .cls-2 {
        fill: #e50914;
      }
    </style>
  </defs>
  <g id="Layer_1-2" data-name="Layer 1">
    <g>
      <path class="cls-2" d="m10.05,11.39h-2.74L2.74,4.46v6.93H0V.16h2.74l4.58,6.96V.16h2.74v11.23Zm6.05.13c-.87,0-1.66-.19-2.37-.56-.69-.37-1.24-.91-1.65-1.6-.39-.69-.59-1.5-.59-2.43s.2-1.72.61-2.42c.41-.7.96-1.24,1.66-1.62.7-.37,1.49-.56,2.37-.56s1.66.19,2.37.56c.7.37,1.26.91,1.66,1.62.41.69.61,1.5.61,2.42s-.21,1.73-.62,2.43c-.41.69-.97,1.23-1.68,1.6-.7.37-1.49.56-2.37.56Zm0-2.37c.52,0,.97-.19,1.33-.58.37-.38.56-.93.56-1.65s-.18-1.26-.54-1.65c-.35-.38-.79-.58-1.31-.58s-.98.19-1.33.58c-.35.37-.53.92-.53,1.65s.17,1.26.51,1.65c.35.38.79.58,1.31.58Zm14.94-6.69v8.93h-2.74v-1.22c-.28.39-.66.71-1.14.96-.47.23-.99.35-1.57.35-.68,0-1.29-.15-1.81-.45-.52-.31-.93-.75-1.22-1.33-.29-.58-.43-1.25-.43-2.03V2.46h2.72v4.85c0,.6.15,1.06.46,1.39.31.33.73.5,1.25.5s.95-.17,1.26-.5c.31-.33.46-.79.46-1.39V2.46h2.74Zm4.53,6.67h3.87v2.26h-6.93v-2.18l3.71-4.5h-3.68v-2.26h6.82v2.18l-3.79,4.5Zm13.79-2.35c0,.26-.02.52-.05.8h-6.19c.04.55.22.98.53,1.28.32.29.71.43,1.17.43.68,0,1.16-.29,1.42-.86h2.91c-.15.59-.42,1.11-.82,1.58-.38.47-.87.84-1.46,1.1-.59.27-1.24.4-1.97.4-.87,0-1.65-.19-2.34-.56-.68-.37-1.22-.91-1.6-1.6-.38-.69-.58-1.5-.58-2.43s.19-1.74.56-2.43c.38-.69.92-1.23,1.6-1.6.68-.37,1.47-.56,2.35-.56s1.63.18,2.3.54,1.19.88,1.57,1.55c.38.67.58,1.46.58,2.35Zm-2.8-.72c0-.47-.16-.84-.48-1.12-.32-.28-.72-.42-1.2-.42s-.85.13-1.17.4c-.31.27-.5.65-.58,1.14h3.42Zm9.68-3.7c1.05,0,1.88.34,2.5,1.02.63.67.94,1.6.94,2.78v5.22h-2.72v-4.85c0-.6-.15-1.06-.46-1.39-.31-.33-.73-.5-1.25-.5s-.94.17-1.25.5c-.31.33-.46.79-.46,1.39v4.85h-2.74V2.46h2.74v1.18c.28-.39.65-.7,1.12-.93.47-.23,1-.35,1.58-.35Z"/>
      <path class="cls-1" d="m71.06,11.5c-.82,0-1.56-.13-2.21-.4-.65-.27-1.17-.66-1.57-1.18-.38-.52-.59-1.15-.61-1.89h2.91c.04.42.19.74.43.96.25.21.57.32.96.32s.73-.09.96-.27c.23-.19.35-.45.35-.78,0-.28-.1-.51-.29-.69-.18-.18-.41-.33-.69-.45-.27-.12-.65-.25-1.15-.4-.73-.22-1.32-.45-1.78-.67-.46-.22-.85-.55-1.18-.99-.33-.44-.5-1.01-.5-1.71,0-1.05.38-1.86,1.14-2.45.76-.6,1.74-.9,2.96-.9s2.23.3,2.99.9c.76.59,1.16,1.41,1.22,2.46h-2.96c-.02-.36-.15-.65-.4-.85-.25-.21-.56-.32-.94-.32-.33,0-.6.09-.8.27-.2.17-.3.42-.3.75,0,.36.17.65.51.85s.87.42,1.6.66c.73.25,1.31.48,1.76.7.46.22.85.55,1.18.98.33.43.5.98.5,1.65s-.17,1.22-.5,1.74c-.32.52-.79.94-1.41,1.25-.62.31-1.35.46-2.19.46Zm10.76-2.43v2.32h-1.39c-.99,0-1.77-.24-2.32-.72-.55-.49-.83-1.29-.83-2.38v-3.55h-1.09v-2.27h1.09V.29h2.74v2.18h1.79v2.27h-1.79v3.58c0,.27.06.46.19.58s.34.18.64.18h.98Zm4.26-5.12c.32-.49.72-.87,1.2-1.15.48-.29,1.01-.43,1.6-.43v2.9h-.75c-.68,0-1.19.15-1.54.45-.34.29-.51.8-.51,1.54v4.14h-2.74V2.46h2.74v1.49Zm12.52,2.83c0,.26-.02.52-.05.8h-6.19c.04.55.22.98.53,1.28.32.29.71.43,1.17.43.68,0,1.16-.29,1.42-.86h2.91c-.15.59-.42,1.11-.82,1.58-.38.47-.87.84-1.46,1.1-.59.27-1.24.4-1.97.4-.87,0-1.65-.19-2.34-.56-.68-.37-1.22-.91-1.6-1.6-.38-.69-.58-1.5-.58-2.43s.19-1.74.56-2.43c.38-.69.92-1.23,1.6-1.6s1.47-.56,2.35-.56,1.63.18,2.3.54,1.19.88,1.57,1.55c.38.67.58,1.46.58,2.35Zm-2.8-.72c0-.47-.16-.84-.48-1.12s-.72-.42-1.2-.42-.85.13-1.17.4c-.31.27-.5.65-.58,1.14h3.42Zm3.7.85c0-.92.17-1.72.51-2.42.35-.69.83-1.23,1.42-1.6s1.26-.56,2-.56c.63,0,1.18.13,1.65.38.48.26.85.59,1.1,1.01v-1.26h2.74v8.93h-2.74v-1.26c-.27.42-.64.75-1.12,1.01-.47.26-1.02.38-1.65.38-.72,0-1.39-.19-1.98-.56-.6-.38-1.07-.92-1.42-1.62-.34-.7-.51-1.51-.51-2.43Zm6.69.02c0-.68-.19-1.22-.58-1.62-.37-.39-.83-.59-1.38-.59s-1.01.2-1.39.59c-.37.38-.56.92-.56,1.6s.19,1.23.56,1.63c.38.39.85.59,1.39.59s1-.2,1.38-.59c.38-.39.58-.93.58-1.62Zm16.11-4.56c1.11,0,1.99.34,2.64,1.01.66.67.99,1.61.99,2.8v5.22h-2.72v-4.85c0-.58-.15-1.02-.46-1.33-.3-.32-.71-.48-1.25-.48s-.95.16-1.26.48c-.3.31-.45.75-.45,1.33v4.85h-2.72v-4.85c0-.58-.15-1.02-.46-1.33-.3-.32-.71-.48-1.25-.48s-.95.16-1.26.48c-.3.31-.45.75-.45,1.33v4.85h-2.74V2.46h2.74v1.12c.28-.37.64-.67,1.09-.88.45-.22.96-.34,1.52-.34.67,0,1.27.14,1.79.43.53.29.95.7,1.25,1.23.31-.49.73-.89,1.26-1.2.53-.31,1.12-.46,1.74-.46Z"/>
    </g>
  </g>
</svg>