<svg width="128" height="24" viewBox="0 0 128 24" fill="none" xmlns="http://www.w3.org/2000/svg">
<path d="M11.04 18H8.304L3.728 11.072V18H0.992V6.768H3.728L8.304 13.728V6.768H11.04V18ZM17.0873 18.128C16.2126 18.128 15.4233 17.9413 14.7193 17.568C14.0259 17.1947 13.4766 16.6613 13.0713 15.968C12.6766 15.2747 12.4793 14.464 12.4793 13.536C12.4793 12.6187 12.6819 11.8133 13.0872 11.12C13.4926 10.416 14.0473 9.87733 14.7513 9.504C15.4553 9.13067 16.2446 8.944 17.1193 8.944C17.9939 8.944 18.7833 9.13067 19.4873 9.504C20.1913 9.87733 20.7459 10.416 21.1513 11.12C21.5566 11.8133 21.7593 12.6187 21.7593 13.536C21.7593 14.4533 21.5513 15.264 21.1353 15.968C20.7299 16.6613 20.1699 17.1947 19.4553 17.568C18.7513 17.9413 17.9619 18.128 17.0873 18.128ZM17.0873 15.76C17.6099 15.76 18.0526 15.568 18.4153 15.184C18.7886 14.8 18.9753 14.2507 18.9753 13.536C18.9753 12.8213 18.7939 12.272 18.4313 11.888C18.0793 11.504 17.6419 11.312 17.1193 11.312C16.5859 11.312 16.1433 11.504 15.7913 11.888C15.4393 12.2613 15.2633 12.8107 15.2633 13.536C15.2633 14.2507 15.4339 14.8 15.7753 15.184C16.1273 15.568 16.5646 15.76 17.0873 15.76ZM32.0268 9.072V18H29.2908V16.784C29.0134 17.1787 28.6348 17.4987 28.1548 17.744C27.6854 17.9787 27.1628 18.096 26.5868 18.096C25.9041 18.096 25.3014 17.9467 24.7788 17.648C24.2561 17.3387 23.8508 16.896 23.5628 16.32C23.2748 15.744 23.1308 15.0667 23.1308 14.288V9.072H25.8508V13.92C25.8508 14.5173 26.0054 14.9813 26.3148 15.312C26.6241 15.6427 27.0401 15.808 27.5628 15.808C28.0961 15.808 28.5174 15.6427 28.8268 15.312C29.1361 14.9813 29.2908 14.5173 29.2908 13.92V9.072H32.0268ZM36.552 15.744H40.424V18H33.496V15.824L37.208 11.328H33.528V9.072H40.344V11.248L36.552 15.744ZM50.3455 13.392C50.3455 13.648 50.3295 13.9147 50.2975 14.192H44.1055C44.1482 14.7467 44.3242 15.1733 44.6335 15.472C44.9535 15.76 45.3428 15.904 45.8015 15.904C46.4842 15.904 46.9588 15.616 47.2255 15.04H50.1375C49.9882 15.6267 49.7162 16.1547 49.3215 16.624C48.9375 17.0933 48.4522 17.4613 47.8655 17.728C47.2788 17.9947 46.6228 18.128 45.8975 18.128C45.0228 18.128 44.2442 17.9413 43.5615 17.568C42.8788 17.1947 42.3455 16.6613 41.9615 15.968C41.5775 15.2747 41.3855 14.464 41.3855 13.536C41.3855 12.608 41.5722 11.7973 41.9455 11.104C42.3295 10.4107 42.8628 9.87733 43.5455 9.504C44.2282 9.13067 45.0122 8.944 45.8975 8.944C46.7615 8.944 47.5295 9.12533 48.2015 9.488C48.8735 9.85067 49.3962 10.368 49.7695 11.04C50.1535 11.712 50.3455 12.496 50.3455 13.392ZM47.5455 12.672C47.5455 12.2027 47.3855 11.8293 47.0655 11.552C46.7455 11.2747 46.3455 11.136 45.8655 11.136C45.4068 11.136 45.0175 11.2693 44.6975 11.536C44.3882 11.8027 44.1962 12.1813 44.1215 12.672H47.5455ZM57.2289 8.976C58.2742 8.976 59.1062 9.31733 59.7249 10C60.3542 10.672 60.6689 11.6 60.6689 12.784V18H57.9489V13.152C57.9489 12.5547 57.7942 12.0907 57.4849 11.76C57.1755 11.4293 56.7595 11.264 56.2369 11.264C55.7142 11.264 55.2982 11.4293 54.9889 11.76C54.6795 12.0907 54.5249 12.5547 54.5249 13.152V18H51.7889V9.072H54.5249V10.256C54.8022 9.86133 55.1755 9.552 55.6449 9.328C56.1142 9.09333 56.6422 8.976 57.2289 8.976Z" fill="#E50914"/>
<path d="M72.056 18.112C71.2347 18.112 70.4987 17.9787 69.848 17.712C69.1973 17.4453 68.6747 17.0507 68.28 16.528C67.896 16.0053 67.6933 15.376 67.672 14.64H70.584C70.6267 15.056 70.7707 15.376 71.016 15.6C71.2613 15.8133 71.5813 15.92 71.976 15.92C72.3813 15.92 72.7013 15.8293 72.936 15.648C73.1707 15.456 73.288 15.1947 73.288 14.864C73.288 14.5867 73.192 14.3573 73 14.176C72.8187 13.9947 72.5893 13.8453 72.312 13.728C72.0453 13.6107 71.6613 13.4773 71.16 13.328C70.4347 13.104 69.8427 12.88 69.384 12.656C68.9253 12.432 68.5307 12.1013 68.2 11.664C67.8693 11.2267 67.704 10.656 67.704 9.952C67.704 8.90667 68.0827 8.09067 68.84 7.504C69.5973 6.90667 70.584 6.608 71.8 6.608C73.0373 6.608 74.0347 6.90667 74.792 7.504C75.5493 8.09067 75.9547 8.912 76.008 9.968H73.048C73.0267 9.60533 72.8933 9.32267 72.648 9.12C72.4027 8.90667 72.088 8.8 71.704 8.8C71.3733 8.8 71.1067 8.89067 70.904 9.072C70.7013 9.24267 70.6 9.49333 70.6 9.824C70.6 10.1867 70.7707 10.4693 71.112 10.672C71.4533 10.8747 71.9867 11.0933 72.712 11.328C73.4373 11.5733 74.024 11.808 74.472 12.032C74.9307 12.256 75.3253 12.5813 75.656 13.008C75.9867 13.4347 76.152 13.984 76.152 14.656C76.152 15.296 75.9867 15.8773 75.656 16.4C75.336 16.9227 74.8667 17.3387 74.248 17.648C73.6293 17.9573 72.8987 18.112 72.056 18.112ZM82.8118 15.68V18H81.4198C80.4278 18 79.6544 17.76 79.0998 17.28C78.5451 16.7893 78.2678 15.9947 78.2678 14.896V11.344H77.1798V9.072H78.2678V6.896H81.0038V9.072H82.7958V11.344H81.0038V14.928C81.0038 15.1947 81.0678 15.3867 81.1958 15.504C81.3238 15.6213 81.5371 15.68 81.8358 15.68H82.8118ZM87.0718 10.56C87.3918 10.0693 87.7918 9.68533 88.2718 9.408C88.7518 9.12 89.2851 8.976 89.8718 8.976V11.872H89.1198C88.4371 11.872 87.9251 12.0213 87.5838 12.32C87.2424 12.608 87.0718 13.12 87.0718 13.856V18H84.3358V9.072H87.0718V10.56ZM99.5955 13.392C99.5955 13.648 99.5795 13.9147 99.5475 14.192H93.3555C93.3982 14.7467 93.5742 15.1733 93.8835 15.472C94.2035 15.76 94.5928 15.904 95.0515 15.904C95.7342 15.904 96.2088 15.616 96.4755 15.04H99.3875C99.2382 15.6267 98.9662 16.1547 98.5715 16.624C98.1875 17.0933 97.7022 17.4613 97.1155 17.728C96.5288 17.9947 95.8728 18.128 95.1475 18.128C94.2728 18.128 93.4942 17.9413 92.8115 17.568C92.1288 17.1947 91.5955 16.6613 91.2115 15.968C90.8275 15.2747 90.6355 14.464 90.6355 13.536C90.6355 12.608 90.8222 11.7973 91.1955 11.104C91.5795 10.4107 92.1128 9.87733 92.7955 9.504C93.4782 9.13067 94.2622 8.944 95.1475 8.944C96.0115 8.944 96.7795 9.12533 97.4515 9.488C98.1235 9.85067 98.6462 10.368 99.0195 11.04C99.4035 11.712 99.5955 12.496 99.5955 13.392ZM96.7955 12.672C96.7955 12.2027 96.6355 11.8293 96.3155 11.552C95.9955 11.2747 95.5955 11.136 95.1155 11.136C94.6568 11.136 94.2675 11.2693 93.9475 11.536C93.6382 11.8027 93.4462 12.1813 93.3715 12.672H96.7955ZM100.495 13.52C100.495 12.6027 100.666 11.7973 101.007 11.104C101.359 10.4107 101.834 9.87733 102.431 9.504C103.028 9.13067 103.695 8.944 104.431 8.944C105.06 8.944 105.61 9.072 106.079 9.328C106.559 9.584 106.927 9.92 107.183 10.336V9.072H109.919V18H107.183V16.736C106.916 17.152 106.543 17.488 106.063 17.744C105.594 18 105.044 18.128 104.415 18.128C103.69 18.128 103.028 17.9413 102.431 17.568C101.834 17.184 101.359 16.6453 101.007 15.952C100.666 15.248 100.495 14.4373 100.495 13.52ZM107.183 13.536C107.183 12.8533 106.991 12.3147 106.607 11.92C106.234 11.5253 105.775 11.328 105.231 11.328C104.687 11.328 104.223 11.5253 103.839 11.92C103.466 12.304 103.279 12.8373 103.279 13.52C103.279 14.2027 103.466 14.7467 103.839 15.152C104.223 15.5467 104.687 15.744 105.231 15.744C105.775 15.744 106.234 15.5467 106.607 15.152C106.991 14.7573 107.183 14.2187 107.183 13.536ZM123.29 8.976C124.4 8.976 125.28 9.312 125.93 9.984C126.592 10.656 126.922 11.5893 126.922 12.784V18H124.202V13.152C124.202 12.576 124.048 12.1333 123.738 11.824C123.44 11.504 123.024 11.344 122.49 11.344C121.957 11.344 121.536 11.504 121.226 11.824C120.928 12.1333 120.778 12.576 120.778 13.152V18H118.058V13.152C118.058 12.576 117.904 12.1333 117.594 11.824C117.296 11.504 116.88 11.344 116.346 11.344C115.813 11.344 115.392 11.504 115.082 11.824C114.784 12.1333 114.634 12.576 114.634 13.152V18H111.898V9.072H114.634V10.192C114.912 9.81867 115.274 9.52533 115.722 9.312C116.17 9.088 116.677 8.976 117.242 8.976C117.914 8.976 118.512 9.12 119.034 9.408C119.568 9.696 119.984 10.1067 120.282 10.64C120.592 10.1493 121.013 9.74933 121.546 9.44C122.08 9.13067 122.661 8.976 123.29 8.976Z" fill="#E5E5E5"/>
</svg>
